<svg width="1200" height="700" viewBox="0 0 1200 700" xmlns="http://www.w3.org/2000/svg" role="img" aria-label="Atelier editorial portfolio screenshot placeholder">
  <defs>
    <linearGradient id="bg" x1="0" x2="1" y1="0" y2="1">
      <stop offset="0%" stop-color="#171d2f"/>
      <stop offset="100%" stop-color="#0c111f"/>
    </linearGradient>
    <linearGradient id="warm" x1="0" x2="1" y1="0" y2="0">
      <stop offset="0%" stop-color="#f59e0b"/>
      <stop offset="100%" stop-color="#fb7185"/>
    </linearGradient>
  </defs>
  <rect width="1200" height="700" rx="48" fill="url(#bg)"/>
  <rect x="76" y="76" width="1048" height="548" rx="36" fill="rgba(255,255,255,0.04)" stroke="rgba(255,255,255,0.08)"/>
  <rect x="120" y="120" width="280" height="500" rx="24" fill="rgba(255,255,255,0.05)"/>
  <rect x="436" y="120" width="688" height="220" rx="24" fill="rgba(255,255,255,0.04)"/>
  <rect x="436" y="372" width="330" height="248" rx="24" fill="rgba(255,255,255,0.04)"/>
  <rect x="796" y="372" width="328" height="248" rx="24" fill="rgba(255,255,255,0.04)"/>
  <rect x="156" y="156" width="168" height="26" rx="13" fill="url(#warm)"/>
  <rect x="156" y="210" width="208" height="18" rx="9" fill="#fff" opacity="0.72"/>
  <rect x="156" y="244" width="132" height="18" rx="9" fill="#fff" opacity="0.42"/>
  <rect x="476" y="164" width="360" height="18" rx="9" fill="#fff" opacity="0.55"/>
  <rect x="476" y="204" width="260" height="18" rx="9" fill="#fff" opacity="0.32"/>
  <rect x="476" y="420" width="250" height="18" rx="9" fill="#fff" opacity="0.45"/>
  <rect x="836" y="420" width="240" height="18" rx="9" fill="#fff" opacity="0.45"/>
  <circle cx="255" cy="440" r="78" fill="url(#warm)" opacity="0.9"/>
  <rect x="206" y="530" width="100" height="18" rx="9" fill="#fff" opacity="0.38"/>
</svg>