<svg width="1200" height="700" viewBox="0 0 1200 700" xmlns="http://www.w3.org/2000/svg" role="img" aria-label="Atlas dashboard screenshot placeholder">
  <defs>
    <linearGradient id="bg" x1="0" x2="1" y1="0" y2="1">
      <stop offset="0%" stop-color="#0d1728"/>
      <stop offset="100%" stop-color="#122a35"/>
    </linearGradient>
    <linearGradient id="cool" x1="0" x2="1" y1="0" y2="1">
      <stop offset="0%" stop-color="#4cc9f0"/>
      <stop offset="100%" stop-color="#7dd3fc"/>
    </linearGradient>
  </defs>
  <rect width="1200" height="700" rx="48" fill="url(#bg)"/>
  <rect x="80" y="76" width="1040" height="548" rx="36" fill="rgba(255,255,255,0.04)" stroke="rgba(255,255,255,0.08)"/>
  <rect x="126" y="126" width="250" height="470" rx="28" fill="rgba(255,255,255,0.04)"/>
  <rect x="412" y="126" width="708" height="130" rx="28" fill="rgba(255,255,255,0.04)"/>
  <rect x="412" y="286" width="330" height="310" rx="28" fill="rgba(255,255,255,0.04)"/>
  <rect x="770" y="286" width="350" height="310" rx="28" fill="rgba(255,255,255,0.04)"/>
  <rect x="164" y="176" width="162" height="22" rx="11" fill="#fff" opacity="0.7"/>
  <rect x="164" y="222" width="124" height="16" rx="8" fill="#fff" opacity="0.34"/>
  <rect x="460" y="166" width="190" height="18" rx="9" fill="#fff" opacity="0.55"/>
  <rect x="460" y="202" width="520" height="18" rx="9" fill="#fff" opacity="0.28"/>
  <circle cx="565" cy="448" r="96" fill="url(#cool)" opacity="0.9"/>
  <circle cx="905" cy="448" r="96" fill="url(#cool)" opacity="0.24"/>
  <rect x="850" y="168" width="178" height="34" rx="17" fill="url(#cool)"/>
  <rect x="850" y="214" width="130" height="18" rx="9" fill="#fff" opacity="0.4"/>
</svg>