<svg width="1200" height="700" viewBox="0 0 1200 700" xmlns="http://www.w3.org/2000/svg" role="img" aria-label="Aurora landing page screenshot placeholder">
  <defs>
    <linearGradient id="bg" x1="0" x2="1" y1="0" y2="1">
      <stop offset="0%" stop-color="#10213b"/>
      <stop offset="100%" stop-color="#1a0f28"/>
    </linearGradient>
    <linearGradient id="accent" x1="0" x2="1" y1="0" y2="0">
      <stop offset="0%" stop-color="#7dd3fc"/>
      <stop offset="100%" stop-color="#f59e0b"/>
    </linearGradient>
  </defs>
  <rect width="1200" height="700" rx="48" fill="url(#bg)"/>
  <circle cx="980" cy="120" r="220" fill="#7dd3fc" opacity="0.12"/>
  <circle cx="1040" cy="530" r="200" fill="#f59e0b" opacity="0.1"/>
  <rect x="80" y="70" width="1040" height="560" rx="36" fill="rgba(255,255,255,0.04)" stroke="rgba(255,255,255,0.08)"/>
  <rect x="130" y="150" width="390" height="48" rx="24" fill="url(#accent)"/>
  <rect x="130" y="230" width="520" height="26" rx="13" fill="#dbeafe" opacity="0.72"/>
  <rect x="130" y="270" width="430" height="26" rx="13" fill="#dbeafe" opacity="0.5"/>
  <rect x="130" y="345" width="180" height="58" rx="20" fill="#7dd3fc"/>
  <rect x="335" y="345" width="180" height="58" rx="20" fill="rgba(255,255,255,0.08)"/>
  <rect x="700" y="170" width="280" height="390" rx="28" fill="rgba(7,17,31,0.75)" stroke="rgba(125,211,252,0.18)"/>
  <rect x="740" y="215" width="200" height="18" rx="9" fill="#dbeafe" opacity="0.76"/>
  <rect x="740" y="255" width="140" height="18" rx="9" fill="#dbeafe" opacity="0.45"/>
  <rect x="740" y="315" width="200" height="34" rx="17" fill="#7dd3fc" opacity="0.9"/>
  <rect x="740" y="370" width="170" height="34" rx="17" fill="rgba(255,255,255,0.08)"/>
  <rect x="740" y="455" width="120" height="18" rx="9" fill="#dbeafe" opacity="0.35"/>
</svg>